Coordinates
version=1
nRows=60
nColumns=12
inDegrees=yes

Units are S.I. units (second, meters, Newtons, ...)
Angles are in degrees

endheader
time	SC_y	SC_z	SC_x	AC_y	AC_z	AC_x	GH_y	GH_z	GH_yy	EL_x	PS_y
       0.0              -40.07         -2.731          30.39          37.34          6.417         -2.835         -55.46         -14.79         -8.839          107.8          54.98
    0.0331              -40.06         -2.727          30.39          37.34          6.416         -2.832         -55.47         -14.79         -8.855          107.8          54.98
    0.0662              -40.06         -2.722          30.38          37.34          6.415         -2.828         -55.47         -14.79         -8.873          107.8          54.99
    0.0993              -40.06         -2.717          30.38          37.35          6.415         -2.825         -55.48         -14.79         -8.891          107.8          54.99
    0.1324              -40.05         -2.712          30.38          37.35          6.414         -2.821         -55.49         -14.79         -8.911          107.8           55.0
    0.1655              -40.05         -2.707          30.37          37.35          6.413         -2.817          -55.5         -14.79         -8.932          107.8          55.01
    0.1986              -40.04         -2.701          30.37          37.36          6.412         -2.812         -55.51         -14.79         -8.954          107.8          55.02
    0.2317              -40.04         -2.695          30.36          37.36          6.412         -2.808         -55.52         -14.79         -8.978          107.8          55.02
    0.2648              -40.03         -2.688          30.36          37.37          6.411         -2.803         -55.53         -14.78         -9.004          107.7          55.03
    0.2979              -40.02         -2.681          30.35          37.37           6.41         -2.797         -55.54         -14.78         -9.031          107.7          55.04
     0.331              -40.02         -2.673          30.35          37.38          6.408         -2.791         -55.55         -14.78         -9.061          107.7          55.05
    0.3641              -40.01         -2.665          30.34          37.38          6.407         -2.785         -55.57         -14.78         -9.092          107.7          55.06
    0.3972               -40.0         -2.656          30.34          37.39          6.406         -2.779         -55.58         -14.78         -9.126          107.7          55.07
    0.4303              -39.99         -2.646          30.33           37.4          6.405         -2.771          -55.6         -14.78         -9.163          107.6          55.08
    0.4634              -39.98         -2.635          30.32          37.41          6.403         -2.764         -55.61         -14.78         -9.203          107.6          55.09
    0.4965              -39.97         -2.624          30.31          37.41          6.402         -2.755         -55.63         -14.78         -9.247          107.6          55.11
    0.5296              -39.96         -2.612          30.31          37.42            6.4         -2.746         -55.65         -14.77         -9.294          107.6          55.12
    0.5627              -39.95         -2.598           30.3          37.43          6.398         -2.736         -55.67         -14.77         -9.345          107.5          55.14
    0.5958              -39.93         -2.583          30.29          37.44          6.396         -2.725          -55.7         -14.77         -9.401          107.5          55.16
    0.6289              -39.92         -2.567          30.27          37.46          6.394         -2.713         -55.72         -14.77         -9.463          107.4          55.18
     0.662               -39.9          -2.55          30.26          37.47          6.391           -2.7         -55.75         -14.77          -9.53          107.4           55.2
    0.6951              -39.89          -2.53          30.25          37.48          6.389         -2.685         -55.78         -14.76         -9.604          107.4          55.22
    0.7282              -39.87         -2.509          30.23           37.5          6.386         -2.669         -55.82         -14.76         -9.686          107.3          55.25
    0.7613              -39.84         -2.485          30.22          37.52          6.382         -2.651         -55.86         -14.76         -9.777          107.2          55.28
    0.7944              -39.82         -2.458           30.2          37.54          6.378         -2.632          -55.9         -14.75         -9.878          107.2          55.31
    0.8275              -39.79         -2.429          30.18          37.56          6.374          -2.61         -55.95         -14.75          -9.99          107.1          55.35
    0.8606              -39.76         -2.396          30.15          37.58           6.37         -2.585          -56.0         -14.75         -10.12          107.0          55.39
    0.8937              -39.73         -2.358          30.13          37.61          6.365         -2.557         -56.06         -14.74         -10.26          106.9          55.43
    0.9268              -39.69         -2.316           30.1          37.64          6.359         -2.526         -56.13         -14.74         -10.42          106.8          55.48
    0.9599              -39.65         -2.268          30.07          37.67          6.352          -2.49          -56.2         -14.73          -10.6          106.7          55.54
     0.993               -39.6         -2.214          30.03          37.71          6.344          -2.45         -56.29         -14.72         -10.81          106.6          55.61
     1.026              -39.54         -2.151          29.98          37.76          6.336         -2.403         -56.39         -14.72         -11.05          106.4          55.68
     1.059              -39.47         -2.079          29.93          37.81          6.325         -2.349         -56.51         -14.71         -11.32          106.3          55.77
     1.092               -39.4         -1.995          29.87          37.87          6.314         -2.287         -56.64         -14.69         -11.64          106.1          55.87
     1.125              -39.31         -1.896          29.81          37.95            6.3         -2.214          -56.8         -14.68         -12.02          105.8          55.99
     1.158               -39.2          -1.78          29.73          38.03          6.284         -2.127         -56.99         -14.67         -12.46          105.5          56.13
     1.192              -39.08         -1.643          29.63          38.13          6.265         -2.025         -57.21         -14.65         -12.98          105.2           56.3
     1.225              -38.93         -1.478          29.51          38.25          6.242         -1.902         -57.47         -14.63         -13.61          104.8           56.5
     1.258              -38.74         -1.278          29.37           38.4          6.214         -1.753         -57.79          -14.6         -14.37          104.3          56.75
     1.291              -38.52         -1.034           29.2          38.58           6.18         -1.572         -58.19         -14.57          -15.3          103.7          57.04
     1.324              -38.25        -0.7325          28.99           38.8          6.137         -1.348         -58.67         -14.53         -16.45          103.0          57.41
     1.357               -37.9        -0.3569          28.73          39.07          6.085         -1.068         -59.27         -14.48         -17.87          102.1          57.87
      1.39              -37.47         0.1163           28.4          39.42          6.019        -0.7162         -60.03         -14.42         -19.68          101.0          58.44
     1.423              -36.92         0.7178          27.98          39.86          5.935        -0.2687          -61.0         -14.34         -21.96           99.5          59.17
     1.456              -36.22          1.488          27.44          40.42          5.827         0.3042         -62.23         -14.24         -24.89          97.64          60.11
     1.489              -35.32          2.476          26.76          41.14          5.689          1.039         -63.82         -14.12         -28.65          95.25          61.31
     1.523              -34.17          3.738          25.87          42.06          5.513          1.978         -65.85         -13.95         -33.46          92.19          62.84
     1.556              -32.73          5.324          24.77          43.22          5.291          3.159         -68.39         -13.75         -39.49          88.35          64.77
     1.589              -30.96          7.258          23.42          44.63          5.021          4.598          -71.5          -13.5         -46.85          83.68          67.13
     1.622              -28.92            9.5          21.85          46.27          4.708          6.265          -75.1         -13.21         -55.38          78.25          69.85
     1.655              -26.71          11.93          20.16          48.04          4.369          8.071         -78.99         -12.89         -64.62          72.38           72.8
     1.688               -24.5          14.35          18.47          49.82           4.03          9.877         -82.89         -12.58         -73.86          66.51          75.75
     1.721              -22.45           16.6           16.9          51.46          3.717          11.54         -86.49         -12.29         -82.39          61.09          78.48
     1.754              -20.69          18.53          15.55          52.87          3.447          12.98         -89.59         -12.04         -89.74          56.41          80.83
     1.787              -19.24          20.12          14.45          54.03          3.226          14.16         -92.14         -11.83         -95.78          52.57          82.76
      1.82              -18.09          21.38          13.56          54.95          3.049           15.1         -94.17         -11.67         -100.6          49.52           84.3
     1.854              -17.19          22.37          12.88          55.67          2.911          15.84         -95.76         -11.54         -104.3          47.13           85.5
     1.887              -16.49          23.14          12.34          56.23          2.804          16.41         -96.99         -11.44         -107.3          45.26          86.43
      1.92              -15.94          23.74          11.92          56.67           2.72          16.86         -97.96         -11.36         -109.6          43.81          87.17
     1.953              -15.51          24.21          11.59          57.02          2.654          17.21         -98.72          -11.3         -111.4          42.66          87.74
